<?xml version="1.0" standalone="no"?>
 <!DOCTYPE svg PUBLIC "-//W3C//DTD SVG 1.1//EN" 
 "http://www.w3.org/Graphics/SVG/1.1/DTD/svg11.dtd"> 
<svg xmlns="http://www.w3.org/2000/svg" version="1.1" 
    width="5.461cm" height="4.318cm" viewBox="0 0 21500 17000 ">
<title>SVG Picture created as OsciladorClapp-F_SilkS.svg date 2016/05/13 16:03:30 </title>
  <desc>Picture generated by PCBNEW </desc>
<g style="fill:#000000; fill-opacity:1;stroke:#000000; stroke-opacity:1;
stroke-linecap:round; stroke-linejoin:round; "
 transform="translate(0 0) scale(1 1)">
</g>
<g style="fill:#000000; fill-opacity:0.0; 
stroke:#000000; stroke-width:80; stroke-opacity:1; 
stroke-linecap:round; stroke-linejoin:round;">
<path d="M11961 7700
L11923 7680
L11885 7642
L11828 7585
L11790 7566
L11752 7566
" />
<path d="M11771 7661
L11733 7642
L11695 7604
L11676 7528
L11676 7395
L11695 7319
L11733 7280
L11771 7261
L11847 7261
L11885 7280
L11923 7319
L11942 7395
L11942 7528
L11923 7604
L11885 7642
L11847 7661
L11771 7661
" />
<path d="M12323 7661
L12095 7661
" />
<path d="M12209 7661
L12209 7261
L12171 7319
L12133 7357
L12095 7376
" />
<path d="M10885 11161
L10885 10761
L11019 11047
L11152 10761
L11152 11161
" />
<path d="M11342 11161
L11342 10761
L11495 10761
L11533 10780
L11552 10800
L11571 10838
L11571 10895
L11552 10933
L11533 10952
L11495 10971
L11342 10971
" />
<path d="M11723 11142
L11780 11161
L11876 11161
L11914 11142
L11933 11123
L11952 11085
L11952 11047
L11933 11009
L11914 10990
L11876 10971
L11800 10952
L11761 10933
L11742 10914
L11723 10876
L11723 10838
L11742 10800
L11761 10780
L11800 10761
L11895 10761
L11952 10780
" />
<path d="M12123 11161
L12123 10761
" />
<path d="M12123 10952
L12352 10952
" />
<path d="M12352 11161
L12352 10761
" />
<path d="M12752 11161
L12523 11161
" />
<path d="M12638 11161
L12638 10761
L12600 10819
L12561 10857
L12523 10876
" />
<path d="M13000 10761
L13038 10761
L13076 10780
L13095 10800
L13114 10838
L13133 10914
L13133 11009
L13114 11085
L13095 11123
L13076 11142
L13038 11161
L13000 11161
L12961 11142
L12942 11123
L12923 11085
L12904 11009
L12904 10914
L12923 10838
L12942 10800
L12961 10780
L13000 10761
" />
</g>
<g style="fill:#000000; fill-opacity:0.0; 
stroke:#000000; stroke-width:43; stroke-opacity:1; 
stroke-linecap:round; stroke-linejoin:round;">
<path d="M6185 11532
L6195 11542
L6204 11570
L6204 11589
L6195 11617
L6176 11636
L6157 11645
L6120 11654
L6092 11654
L6054 11645
L6035 11636
L6017 11617
L6007 11589
L6007 11570
L6017 11542
L6026 11532
" />
<path d="M6073 11363
L6204 11363
" />
<path d="M5998 11410
L6139 11457
L6139 11335
" />
<path d="M5929 11720
L5929 11833
" />
<path d="M5929 11776
L5732 11776
L5760 11795
L5779 11814
L5789 11833
" />
<path d="M5751 11645
L5742 11636
L5732 11617
L5732 11570
L5742 11551
L5751 11542
L5770 11532
L5789 11532
L5817 11542
L5929 11654
L5929 11532
" />
<path d="M5732 11410
L5732 11392
L5742 11373
L5751 11363
L5770 11354
L5807 11345
L5854 11345
L5892 11354
L5910 11363
L5920 11373
L5929 11392
L5929 11410
L5920 11429
L5910 11439
L5892 11448
L5854 11457
L5807 11457
L5770 11448
L5751 11439
L5742 11429
L5732 11410
" />
<path d="M5798 11260
L5995 11260
" />
<path d="M5807 11260
L5798 11242
L5798 11204
L5807 11185
L5817 11176
L5835 11166
L5892 11166
L5910 11176
L5920 11185
L5929 11204
L5929 11242
L5920 11260
" />
<path d="M6185 14282
L6195 14292
L6204 14320
L6204 14339
L6195 14367
L6176 14386
L6157 14395
L6120 14404
L6092 14404
L6054 14395
L6035 14386
L6017 14367
L6007 14339
L6007 14320
L6017 14292
L6026 14282
" />
<path d="M6007 14104
L6007 14198
L6101 14207
L6092 14198
L6082 14179
L6082 14132
L6092 14113
L6101 14104
L6120 14095
L6167 14095
L6185 14104
L6195 14113
L6204 14132
L6204 14179
L6195 14198
L6185 14207
" />
<path d="M5929 14470
L5929 14583
" />
<path d="M5929 14526
L5732 14526
L5760 14545
L5779 14564
L5789 14583
" />
<path d="M5751 14395
L5742 14386
L5732 14367
L5732 14320
L5742 14301
L5751 14292
L5770 14282
L5789 14282
L5817 14292
L5929 14404
L5929 14282
" />
<path d="M5732 14160
L5732 14142
L5742 14123
L5751 14113
L5770 14104
L5807 14095
L5854 14095
L5892 14104
L5910 14113
L5920 14123
L5929 14142
L5929 14160
L5920 14179
L5910 14189
L5892 14198
L5854 14207
L5807 14207
L5770 14198
L5751 14189
L5742 14179
L5732 14160
" />
<path d="M5798 14010
L5995 14010
" />
<path d="M5807 14010
L5798 13992
L5798 13954
L5807 13935
L5817 13926
L5835 13916
L5892 13916
L5910 13926
L5920 13935
L5929 13954
L5929 13992
L5920 14010
" />
<path d="M9704 8032
L9610 8098
" />
<path d="M9704 8145
L9507 8145
L9507 8070
L9517 8051
L9526 8042
L9545 8032
L9573 8032
L9592 8042
L9601 8051
L9610 8070
L9610 8145
" />
<path d="M9704 7845
L9704 7957
" />
<path d="M9704 7901
L9507 7901
L9535 7920
L9554 7939
L9564 7957
" />
<path d="M9429 8131
L9429 8243
" />
<path d="M9429 8187
L9232 8187
L9260 8206
L9279 8225
L9289 8243
" />
<path d="M9232 8009
L9232 7990
L9242 7971
L9251 7962
L9270 7953
L9307 7943
L9354 7943
L9392 7953
L9410 7962
L9420 7971
L9429 7990
L9429 8009
L9420 8028
L9410 8037
L9392 8046
L9354 8056
L9307 8056
L9270 8046
L9251 8037
L9242 8028
L9232 8009
" />
<path d="M9232 7821
L9232 7803
L9242 7784
L9251 7774
L9270 7765
L9307 7756
L9354 7756
L9392 7765
L9410 7774
L9420 7784
L9429 7803
L9429 7821
L9420 7840
L9410 7849
L9392 7859
L9354 7868
L9307 7868
L9270 7859
L9251 7849
L9242 7840
L9232 7821
" />
<path d="M12204 12532
L12110 12598
" />
<path d="M12204 12645
L12007 12645
L12007 12570
L12017 12551
L12026 12542
L12045 12532
L12073 12532
L12092 12542
L12101 12551
L12110 12570
L12110 12645
" />
<path d="M12007 12467
L12007 12345
L12082 12410
L12082 12382
L12092 12363
L12101 12354
L12120 12345
L12167 12345
L12185 12354
L12195 12363
L12204 12382
L12204 12439
L12195 12457
L12185 12467
" />
<path d="M11929 12631
L11929 12743
" />
<path d="M11929 12687
L11732 12687
L11760 12706
L11779 12725
L11789 12743
" />
<path d="M11732 12509
L11732 12490
L11742 12471
L11751 12462
L11770 12453
L11807 12443
L11854 12443
L11892 12453
L11910 12462
L11920 12471
L11929 12490
L11929 12509
L11920 12528
L11910 12537
L11892 12546
L11854 12556
L11807 12556
L11770 12546
L11751 12537
L11742 12528
L11732 12509
" />
<path d="M11732 12321
L11732 12303
L11742 12284
L11751 12274
L11770 12265
L11807 12256
L11854 12256
L11892 12265
L11910 12274
L11920 12284
L11929 12303
L11929 12321
L11920 12340
L11910 12349
L11892 12359
L11854 12368
L11807 12368
L11770 12359
L11751 12349
L11742 12340
L11732 12321
" />
<path d="M17092 8829
L17026 8735
" />
<path d="M16979 8829
L16979 8632
L17054 8632
L17073 8642
L17082 8651
L17092 8670
L17092 8698
L17082 8717
L17073 8726
L17054 8735
L16979 8735
" />
<path d="M17261 8698
L17261 8829
" />
<path d="M17214 8623
L17167 8764
L17289 8764
" />
<path d="M17268 8829
L17156 8829
" />
<path d="M17212 8829
L17212 8632
L17193 8660
L17174 8679
L17156 8689
" />
<path d="M17390 8632
L17409 8632
L17428 8642
L17437 8651
L17446 8670
L17456 8707
L17456 8754
L17446 8792
L17437 8810
L17428 8820
L17409 8829
L17390 8829
L17371 8820
L17362 8810
L17353 8792
L17343 8754
L17343 8707
L17353 8670
L17362 8651
L17371 8642
L17390 8632
" />
<path d="M17578 8632
L17597 8632
L17615 8642
L17625 8651
L17634 8670
L17643 8707
L17643 8754
L17634 8792
L17625 8810
L17615 8820
L17597 8829
L17578 8829
L17559 8820
L17550 8810
L17540 8792
L17531 8754
L17531 8707
L17540 8670
L17550 8651
L17559 8642
L17578 8632
" />
<path d="M15954 8782
L15860 8848
" />
<path d="M15954 8895
L15757 8895
L15757 8820
L15767 8801
L15776 8792
L15795 8782
L15823 8782
L15842 8792
L15851 8801
L15860 8820
L15860 8895
" />
<path d="M15757 8604
L15757 8698
L15851 8707
L15842 8698
L15832 8679
L15832 8632
L15842 8613
L15851 8604
L15870 8595
L15917 8595
L15935 8604
L15945 8613
L15954 8632
L15954 8679
L15945 8698
L15935 8707
" />
<path d="M16229 8881
L16229 8993
" />
<path d="M16229 8937
L16032 8937
L16060 8956
L16079 8975
L16089 8993
" />
<path d="M16032 8759
L16032 8740
L16042 8721
L16051 8712
L16070 8703
L16107 8693
L16154 8693
L16192 8703
L16210 8712
L16220 8721
L16229 8740
L16229 8759
L16220 8778
L16210 8787
L16192 8796
L16154 8806
L16107 8806
L16070 8796
L16051 8787
L16042 8778
L16032 8759
" />
<path d="M16032 8571
L16032 8553
L16042 8534
L16051 8524
L16070 8515
L16107 8506
L16154 8506
L16192 8515
L16210 8524
L16220 8534
L16229 8553
L16229 8571
L16220 8590
L16210 8599
L16192 8609
L16154 8618
L16107 8618
L16070 8609
L16051 8599
L16042 8590
L16032 8571
" />
<path d="M7685 14451
L7695 14461
L7704 14489
L7704 14507
L7695 14536
L7676 14554
L7657 14564
L7620 14573
L7592 14573
L7554 14564
L7535 14554
L7517 14536
L7507 14507
L7507 14489
L7517 14461
L7526 14451
" />
<path d="M7507 14273
L7507 14367
L7601 14376
L7592 14367
L7582 14348
L7582 14301
L7592 14282
L7601 14273
L7620 14264
L7667 14264
L7685 14273
L7695 14282
L7704 14301
L7704 14348
L7695 14367
L7685 14376
" />
<path d="M7723 14226
L7723 14076
" />
<path d="M7526 14038
L7517 14029
L7507 14010
L7507 13963
L7517 13945
L7526 13935
L7545 13926
L7564 13926
L7592 13935
L7704 14048
L7704 13926
" />
<path d="M7429 14376
L7429 14489
" />
<path d="M7429 14432
L7232 14432
L7260 14451
L7279 14470
L7289 14489
" />
<path d="M7232 14254
L7232 14235
L7242 14217
L7251 14207
L7270 14198
L7307 14189
L7354 14189
L7392 14198
L7410 14207
L7420 14217
L7429 14235
L7429 14254
L7420 14273
L7410 14282
L7392 14292
L7354 14301
L7307 14301
L7270 14292
L7251 14282
L7242 14273
L7232 14254
" />
<path d="M7298 14104
L7495 14104
" />
<path d="M7307 14104
L7298 14085
L7298 14048
L7307 14029
L7317 14020
L7335 14010
L7392 14010
L7410 14020
L7420 14029
L7429 14048
L7429 14085
L7420 14104
" />
<path d="M7685 11701
L7695 11711
L7704 11739
L7704 11757
L7695 11786
L7676 11804
L7657 11814
L7620 11823
L7592 11823
L7554 11814
L7535 11804
L7517 11786
L7507 11757
L7507 11739
L7517 11711
L7526 11701
" />
<path d="M7573 11532
L7704 11532
" />
<path d="M7498 11579
L7639 11626
L7639 11504
" />
<path d="M7723 11476
L7723 11326
" />
<path d="M7526 11288
L7517 11279
L7507 11260
L7507 11213
L7517 11195
L7526 11185
L7545 11176
L7564 11176
L7592 11185
L7704 11298
L7704 11176
" />
<path d="M7429 11626
L7429 11739
" />
<path d="M7429 11682
L7232 11682
L7260 11701
L7279 11720
L7289 11739
" />
<path d="M7232 11504
L7232 11485
L7242 11467
L7251 11457
L7270 11448
L7307 11439
L7354 11439
L7392 11448
L7410 11457
L7420 11467
L7429 11485
L7429 11504
L7420 11523
L7410 11532
L7392 11542
L7354 11551
L7307 11551
L7270 11542
L7251 11532
L7242 11523
L7232 11504
" />
<path d="M7298 11354
L7495 11354
" />
<path d="M7307 11354
L7298 11335
L7298 11298
L7307 11279
L7317 11270
L7335 11260
L7392 11260
L7410 11270
L7420 11279
L7429 11298
L7429 11335
L7420 11354
" />
<path d="M14685 8782
L14695 8792
L14704 8820
L14704 8839
L14695 8867
L14676 8886
L14657 8895
L14620 8904
L14592 8904
L14554 8895
L14535 8886
L14517 8867
L14507 8839
L14507 8820
L14517 8792
L14526 8782
" />
<path d="M14526 8707
L14517 8698
L14507 8679
L14507 8632
L14517 8613
L14526 8604
L14545 8595
L14564 8595
L14592 8604
L14704 8717
L14704 8595
" />
<path d="M14232 8932
L14232 9026
L14326 9036
L14317 9026
L14307 9007
L14307 8961
L14317 8942
L14326 8932
L14345 8923
L14392 8923
L14410 8932
L14420 8942
L14429 8961
L14429 9007
L14420 9026
L14410 9036
" />
<path d="M14420 8829
L14429 8829
L14448 8839
L14457 8848
" />
<path d="M14232 8660
L14232 8698
L14242 8717
L14251 8726
L14279 8745
L14317 8754
L14392 8754
L14410 8745
L14420 8735
L14429 8717
L14429 8679
L14420 8660
L14410 8651
L14392 8642
L14345 8642
L14326 8651
L14317 8660
L14307 8679
L14307 8717
L14317 8735
L14326 8745
L14345 8754
" />
<path d="M14298 8557
L14495 8557
" />
<path d="M14307 8557
L14298 8538
L14298 8501
L14307 8482
L14317 8473
L14335 8463
L14392 8463
L14410 8473
L14420 8482
L14429 8501
L14429 8538
L14420 8557
" />
<path d="M8454 8032
L8360 8098
" />
<path d="M8454 8145
L8257 8145
L8257 8070
L8267 8051
L8276 8042
L8295 8032
L8323 8032
L8342 8042
L8351 8051
L8360 8070
L8360 8145
" />
<path d="M8276 7957
L8267 7948
L8257 7929
L8257 7882
L8267 7863
L8276 7854
L8295 7845
L8314 7845
L8342 7854
L8454 7967
L8454 7845
" />
<path d="M8532 8253
L8532 8131
L8607 8196
L8607 8168
L8617 8150
L8626 8140
L8645 8131
L8692 8131
L8710 8140
L8720 8150
L8729 8168
L8729 8225
L8720 8243
L8710 8253
" />
<path d="M8532 8065
L8532 7943
L8607 8009
L8607 7981
L8617 7962
L8626 7953
L8645 7943
L8692 7943
L8710 7953
L8720 7962
L8729 7981
L8729 8037
L8720 8056
L8710 8065
" />
<path d="M8532 7821
L8532 7803
L8542 7784
L8551 7774
L8570 7765
L8607 7756
L8654 7756
L8692 7765
L8710 7774
L8720 7784
L8729 7803
L8729 7821
L8720 7840
L8710 7849
L8692 7859
L8654 7868
L8607 7868
L8570 7859
L8551 7849
L8542 7840
L8532 7821
" />
</g>
<g style="fill:#000000; fill-opacity:0.0; 
stroke:#000000; stroke-width:60; stroke-opacity:1; 
stroke-linecap:round; stroke-linejoin:round;">
<path d="M10511 5338
L10321 5471
" />
<path d="M10511 5566
L10111 5566
L10111 5414
L10130 5376
L10150 5357
L10188 5338
L10245 5338
L10283 5357
L10302 5376
L10321 5414
L10321 5566
" />
<path d="M10111 5223
L10511 5090
L10111 4957
" />
<path d="M10511 4614
L10511 4842
" />
<path d="M10511 4728
L10111 4728
L10169 4766
L10207 4804
L10226 4842
" />
<path d="M19871 4721
L19571 4721
L19571 4607
L19585 4578
L19600 4564
L19628 4550
L19671 4550
L19700 4564
L19714 4578
L19728 4607
L19728 4721
" />
<path d="M19871 4264
L19871 4435
" />
<path d="M19871 4350
L19571 4350
L19614 4378
L19642 4407
L19657 4435
" />
<path d="M6250 8571
L6250 8785
L6235 8828
L6207 8857
L6164 8871
L6135 8871
" />
<path d="M6392 8871
L6392 8571
L6507 8571
L6535 8585
L6550 8600
L6564 8628
L6564 8671
L6550 8700
L6535 8714
L6507 8728
L6392 8728
" />
<path d="M6678 8600
L6692 8585
L6721 8571
L6792 8571
L6821 8585
L6835 8600
L6850 8628
L6850 8657
L6835 8700
L6664 8871
L6850 8871
" />
<path d="M11071 5749
L11285 5749
L11328 5764
L11357 5792
L11371 5835
L11371 5864
" />
<path d="M11371 5607
L11071 5607
L11071 5492
L11085 5464
L11100 5450
L11128 5435
L11171 5435
L11200 5450
L11214 5464
L11228 5492
L11228 5607
" />
<path d="M11371 5150
L11371 5321
" />
<path d="M11371 5235
L11071 5235
L11114 5264
L11142 5292
L11157 5321
" />
<path d="M18371 8221
L18071 8221
L18071 8107
L18085 8078
L18100 8064
L18128 8050
L18171 8050
L18200 8064
L18214 8078
L18228 8107
L18228 8221
" />
<path d="M18100 7935
L18085 7921
L18071 7892
L18071 7821
L18085 7792
L18100 7778
L18128 7764
L18157 7764
L18200 7778
L18371 7950
L18371 7764
" />
</g>
<g style="fill:#000000; fill-opacity:0.0; 
stroke:#000000; stroke-width:80; stroke-opacity:1; 
stroke-linecap:round; stroke-linejoin:round;">
<path d="M15433 11873
L15414 11892
L15357 11911
L15319 11911
L15261 11892
L15223 11854
L15204 11816
L15185 11740
L15185 11683
L15204 11607
L15223 11569
L15261 11530
L15319 11511
L15357 11511
L15414 11530
L15433 11550
" />
<path d="M15566 11511
L15814 11511
L15680 11664
L15738 11664
L15776 11683
L15795 11702
L15814 11740
L15814 11835
L15795 11873
L15776 11892
L15738 11911
L15623 11911
L15585 11892
L15566 11873
" />
<path d="M1623 14566
L1642 14585
L1661 14642
L1661 14680
L1642 14738
L1604 14776
L1566 14795
L1490 14814
L1433 14814
L1357 14795
L1319 14776
L1280 14738
L1261 14680
L1261 14642
L1280 14585
L1300 14566
" />
<path d="M1661 14185
L1661 14414
" />
<path d="M1661 14299
L1261 14299
L1319 14338
L1357 14376
L1376 14414
" />
<path d="M15433 2161
L15242 2161
L15242 1761
" />
<path d="M15547 1800
L15566 1780
L15604 1761
L15700 1761
L15738 1780
L15757 1800
L15776 1838
L15776 1876
L15757 1933
L15528 2161
L15776 2161
" />
<path d="M2561 10166
L2561 10357
L2161 10357
" />
<path d="M2561 9823
L2561 10052
" />
<path d="M2561 9938
L2161 9938
L2219 9976
L2257 10014
L2276 10052
" />
</g>
<g style="fill:#000000; fill-opacity:0.0; 
stroke:#000000; stroke-width:60; stroke-opacity:1; 
stroke-linecap:round; stroke-linejoin:round;">
<path d="M2635 3871
L2635 3571
L2750 3571
L2778 3585
L2792 3600
L2807 3628
L2807 3671
L2792 3700
L2778 3714
L2750 3728
L2635 3728
" />
<path d="M2935 3871
L2935 3571
" />
<path d="M3078 3871
L3078 3571
L3250 3871
L3250 3571
" />
<path d="M3321 3900
L3550 3900
" />
<path d="M3607 3785
L3750 3785
" />
<path d="M3578 3871
L3678 3571
L3778 3871
" />
<path d="M4050 3871
L3950 3728
" />
<path d="M3878 3871
L3878 3571
L3992 3571
L4021 3585
L4035 3600
L4050 3628
L4050 3671
L4035 3700
L4021 3714
L3992 3728
L3878 3728
" />
<path d="M4350 3871
L4250 3728
" />
<path d="M4178 3871
L4178 3571
L4292 3571
L4321 3585
L4335 3600
L4350 3628
L4350 3671
L4335 3700
L4321 3714
L4292 3728
L4178 3728
" />
<path d="M4464 3785
L4607 3785
" />
<path d="M4435 3871
L4535 3571
L4635 3871
" />
<path d="M4792 3728
L4792 3871
" />
<path d="M4692 3571
L4792 3728
L4892 3571
" />
<path d="M4921 3900
L5150 3900
" />
<path d="M5378 3871
L5207 3871
" />
<path d="M5292 3871
L5292 3571
L5264 3614
L5235 3642
L5207 3657
" />
<path d="M2635 14371
L2635 14071
L2750 14071
L2778 14085
L2792 14100
L2807 14128
L2807 14171
L2792 14200
L2778 14214
L2750 14228
L2635 14228
" />
<path d="M2935 14371
L2935 14071
" />
<path d="M3078 14371
L3078 14071
L3250 14371
L3250 14071
" />
<path d="M3321 14400
L3550 14400
" />
<path d="M3607 14285
L3750 14285
" />
<path d="M3578 14371
L3678 14071
L3778 14371
" />
<path d="M4050 14371
L3950 14228
" />
<path d="M3878 14371
L3878 14071
L3992 14071
L4021 14085
L4035 14100
L4050 14128
L4050 14171
L4035 14200
L4021 14214
L3992 14228
L3878 14228
" />
<path d="M4350 14371
L4250 14228
" />
<path d="M4178 14371
L4178 14071
L4292 14071
L4321 14085
L4335 14100
L4350 14128
L4350 14171
L4335 14200
L4321 14214
L4292 14228
L4178 14228
" />
<path d="M4464 14285
L4607 14285
" />
<path d="M4435 14371
L4535 14071
L4635 14371
" />
<path d="M4792 14228
L4792 14371
" />
<path d="M4692 14071
L4792 14228
L4892 14071
" />
<path d="M4921 14400
L5150 14400
" />
<path d="M5378 14371
L5207 14371
" />
<path d="M5292 14371
L5292 14071
L5264 14114
L5235 14142
L5207 14157
" />
<path d="M15135 3871
L15135 3571
L15250 3571
L15278 3585
L15292 3600
L15307 3628
L15307 3671
L15292 3700
L15278 3714
L15250 3728
L15135 3728
" />
<path d="M15435 3871
L15435 3571
" />
<path d="M15578 3871
L15578 3571
L15750 3871
L15750 3571
" />
<path d="M15821 3900
L16050 3900
" />
<path d="M16107 3785
L16250 3785
" />
<path d="M16078 3871
L16178 3571
L16278 3871
" />
<path d="M16550 3871
L16450 3728
" />
<path d="M16378 3871
L16378 3571
L16492 3571
L16521 3585
L16535 3600
L16550 3628
L16550 3671
L16535 3700
L16521 3714
L16492 3728
L16378 3728
" />
<path d="M16850 3871
L16750 3728
" />
<path d="M16678 3871
L16678 3571
L16792 3571
L16821 3585
L16835 3600
L16850 3628
L16850 3671
L16835 3700
L16821 3714
L16792 3728
L16678 3728
" />
<path d="M16964 3785
L17107 3785
" />
<path d="M16935 3871
L17035 3571
L17135 3871
" />
<path d="M17292 3728
L17292 3871
" />
<path d="M17192 3571
L17292 3728
L17392 3571
" />
<path d="M17421 3900
L17650 3900
" />
<path d="M17878 3871
L17707 3871
" />
<path d="M17792 3871
L17792 3571
L17764 3614
L17735 3642
L17707 3657
" />
<path d="M9635 14371
L9635 14071
L9750 14071
L9778 14085
L9792 14100
L9807 14128
L9807 14171
L9792 14200
L9778 14214
L9750 14228
L9635 14228
" />
<path d="M9935 14371
L9935 14071
" />
<path d="M10078 14371
L10078 14071
L10250 14371
L10250 14071
" />
<path d="M10321 14400
L10550 14400
" />
<path d="M10607 14285
L10750 14285
" />
<path d="M10578 14371
L10678 14071
L10778 14371
" />
<path d="M11050 14371
L10950 14228
" />
<path d="M10878 14371
L10878 14071
L10992 14071
L11021 14085
L11035 14100
L11050 14128
L11050 14171
L11035 14200
L11021 14214
L10992 14228
L10878 14228
" />
<path d="M11350 14371
L11250 14228
" />
<path d="M11178 14371
L11178 14071
L11292 14071
L11321 14085
L11335 14100
L11350 14128
L11350 14171
L11335 14200
L11321 14214
L11292 14228
L11178 14228
" />
<path d="M11464 14285
L11607 14285
" />
<path d="M11435 14371
L11535 14071
L11635 14371
" />
<path d="M11792 14228
L11792 14371
" />
<path d="M11692 14071
L11792 14228
L11892 14071
" />
<path d="M11921 14400
L12150 14400
" />
<path d="M12378 14371
L12207 14371
" />
<path d="M12292 14371
L12292 14071
L12264 14114
L12235 14142
L12207 14157
" />
<path d="M15635 14371
L15635 14071
L15750 14071
L15778 14085
L15792 14100
L15807 14128
L15807 14171
L15792 14200
L15778 14214
L15750 14228
L15635 14228
" />
<path d="M15935 14371
L15935 14071
" />
<path d="M16078 14371
L16078 14071
L16250 14371
L16250 14071
" />
<path d="M16321 14400
L16550 14400
" />
<path d="M16607 14285
L16750 14285
" />
<path d="M16578 14371
L16678 14071
L16778 14371
" />
<path d="M17050 14371
L16950 14228
" />
<path d="M16878 14371
L16878 14071
L16992 14071
L17021 14085
L17035 14100
L17050 14128
L17050 14171
L17035 14200
L17021 14214
L16992 14228
L16878 14228
" />
<path d="M17350 14371
L17250 14228
" />
<path d="M17178 14371
L17178 14071
L17292 14071
L17321 14085
L17335 14100
L17350 14128
L17350 14171
L17335 14200
L17321 14214
L17292 14228
L17178 14228
" />
<path d="M17464 14285
L17607 14285
" />
<path d="M17435 14371
L17535 14071
L17635 14371
" />
<path d="M17792 14228
L17792 14371
" />
<path d="M17692 14071
L17792 14228
L17892 14071
" />
<path d="M17921 14400
L18150 14400
" />
<path d="M18378 14371
L18207 14371
" />
<path d="M18292 14371
L18292 14071
L18264 14114
L18235 14142
L18207 14157
" />
</g>
<g style="fill:#000000; fill-opacity:0.0; 
stroke:#000000; stroke-width:120; stroke-opacity:1; 
stroke-linecap:round; stroke-linejoin:round;">
<path d="M12000 8000
L10500 9500
" />
<path d="M10500 9500
L10500 10000
" />
<path d="M10500 10000
L11000 10500
" />
<path d="M11000 10500
L12000 10500
" />
<path d="M12000 10500
L13000 9500
" />
<path d="M13000 9500
L13000 8500
" />
<path d="M13000 8500
L12500 8000
" />
<path d="M12500 8000
L12000 8000
" />
</g>
<g style="fill:#000000; fill-opacity:0.0; 
stroke:#000000; stroke-width:39; stroke-opacity:1; 
stroke-linecap:round; stroke-linejoin:round;">
<circle cx="5700" cy="10850" r="50" /> 
<path d="M5700 11300
L5700 10900
" />
<path d="M5700 10900
L6300 10900
" />
<path d="M6300 10900
L6300 11300
" />
<path d="M6300 11700
L6300 12100
" />
<path d="M6300 12100
L5700 12100
" />
<path d="M5700 12100
L5700 11700
" />
<circle cx="5700" cy="13600" r="50" /> 
<path d="M5700 14050
L5700 13650
" />
<path d="M5700 13650
L6300 13650
" />
<path d="M6300 13650
L6300 14050
" />
<path d="M6300 14450
L6300 14850
" />
<path d="M6300 14850
L5700 14850
" />
<path d="M5700 14850
L5700 14450
" />
<circle cx="9200" cy="7350" r="50" /> 
<path d="M9200 7800
L9200 7400
" />
<path d="M9200 7400
L9800 7400
" />
<path d="M9800 7400
L9800 7800
" />
<path d="M9800 8200
L9800 8600
" />
<path d="M9800 8600
L9200 8600
" />
<path d="M9200 8600
L9200 8200
" />
<circle cx="11700" cy="11850" r="50" /> 
<path d="M11700 12300
L11700 11900
" />
<path d="M11700 11900
L12300 11900
" />
<path d="M12300 11900
L12300 12300
" />
<path d="M12300 12700
L12300 13100
" />
<path d="M12300 13100
L11700 13100
" />
<path d="M11700 13100
L11700 12700
" />
<circle cx="17550" cy="9400" r="50" /> 
<path d="M17550 8950
L17550 9350
" />
<path d="M17550 9350
L16950 9350
" />
<path d="M16950 9350
L16950 8950
" />
<path d="M16950 8550
L16950 8150
" />
<path d="M16950 8150
L17550 8150
" />
<path d="M17550 8150
L17550 8550
" />
<circle cx="16300" cy="9400" r="50" /> 
<path d="M16300 8950
L16300 9350
" />
<path d="M16300 9350
L15700 9350
" />
<path d="M15700 9350
L15700 8950
" />
<path d="M15700 8550
L15700 8150
" />
<path d="M15700 8150
L16300 8150
" />
<path d="M16300 8150
L16300 8550
" />
<circle cx="7200" cy="13600" r="50" /> 
<path d="M7200 14050
L7200 13650
" />
<path d="M7200 13650
L7800 13650
" />
<path d="M7800 13650
L7800 14050
" />
<path d="M7800 14450
L7800 14850
" />
<path d="M7800 14850
L7200 14850
" />
<path d="M7200 14850
L7200 14450
" />
<circle cx="7200" cy="10850" r="50" /> 
<path d="M7200 11300
L7200 10900
" />
<path d="M7200 10900
L7800 10900
" />
<path d="M7800 10900
L7800 11300
" />
<path d="M7800 11700
L7800 12100
" />
<path d="M7800 12100
L7200 12100
" />
<path d="M7200 12100
L7200 11700
" />
<circle cx="14200" cy="8100" r="50" /> 
<path d="M14200 8550
L14200 8150
" />
<path d="M14200 8150
L14800 8150
" />
<path d="M14800 8150
L14800 8550
" />
<path d="M14800 8950
L14800 9350
" />
<path d="M14800 9350
L14200 9350
" />
<path d="M14200 9350
L14200 8950
" />
<circle cx="8800" cy="8650" r="50" /> 
<path d="M8800 8200
L8800 8600
" />
<path d="M8800 8600
L8200 8600
" />
<path d="M8200 8600
L8200 8200
" />
<path d="M8200 7800
L8200 7400
" />
<path d="M8200 7400
L8800 7400
" />
<path d="M8800 7400
L8800 7800
" />
</g>
<g style="fill:#000000; fill-opacity:0.0; 
stroke:#000000; stroke-width:60; stroke-opacity:1; 
stroke-linecap:round; stroke-linejoin:round;">
<path d="M9000 3500
L10000 3500
" />
<path d="M10000 3500
L10000 6500
" />
<path d="M10000 6500
L9000 6500
" />
<path d="M9000 6500
L9000 3500
" />
<path d="M10000 4500
L9000 4500
" />
<path d="M18500 3500
L19500 3500
" />
<path d="M19500 3500
L19500 5500
" />
<path d="M19500 5500
L18500 5500
" />
<path d="M18500 5500
L18500 3500
" />
<path d="M5500 10000
L5500 9000
" />
<path d="M5500 9000
L7500 9000
" />
<path d="M7500 9000
L7500 10000
" />
<path d="M7500 10000
L5500 10000
" />
<path d="M12500 6500
L11500 6500
" />
<path d="M11500 6500
L11500 4500
" />
<path d="M11500 4500
L12500 4500
" />
<path d="M12500 4500
L12500 6500
" />
<path d="M19500 9000
L18500 9000
" />
<path d="M18500 9000
L18500 7000
" />
<path d="M18500 7000
L19500 7000
" />
<path d="M19500 7000
L19500 9000
" />
</g>
<g style="fill:#000000; fill-opacity:0.0; 
stroke:#000000; stroke-width:120; stroke-opacity:1; 
stroke-linecap:round; stroke-linejoin:round;">
<path d="M14100 11350
L16900 11350
" />
<path d="M16900 11350
L16900 12150
" />
<path d="M16900 12150
L14100 12150
" />
<path d="M14100 12150
L14100 11350
" />
<path d="M14100 11550
L14300 11350
" />
<path d="M1900 13100
L1900 15900
" />
<path d="M1900 15900
L1100 15900
" />
<path d="M1100 15900
L1100 13100
" />
<path d="M1100 13100
L1900 13100
" />
<path d="M1700 13100
L1900 13300
" />
<path d="M16900 2400
L14100 2400
" />
<path d="M14100 2400
L14100 1600
" />
<path d="M14100 1600
L16900 1600
" />
<path d="M16900 1600
L16900 2400
" />
<path d="M16900 2200
L16700 2400
" />
<path d="M2000 9020
L2000 11000
" />
<path d="M2000 11000
L1000 11000
" />
<path d="M1000 11000
L1000 9000
" />
<path d="M1000 9000
L2000 9000
" />
<path d="M1750 9000
L2000 9250
" />
</g>
<g style="fill:#000000; fill-opacity:0.0; 
stroke:#000000; stroke-width:60; stroke-opacity:1; 
stroke-linecap:round; stroke-linejoin:round;">
<path d="M4500 5000
L3500 5000
" />
<path d="M3500 4000
L4500 4000
" />
<path d="M3500 5000
L3500 4000
" />
<path d="M4500 4000
L4500 5000
" />
<path d="M4500 15500
L3500 15500
" />
<path d="M3500 14500
L4500 14500
" />
<path d="M3500 15500
L3500 14500
" />
<path d="M4500 14500
L4500 15500
" />
<path d="M17000 5000
L16000 5000
" />
<path d="M16000 4000
L17000 4000
" />
<path d="M16000 5000
L16000 4000
" />
<path d="M17000 4000
L17000 5000
" />
<path d="M11500 15500
L10500 15500
" />
<path d="M10500 14500
L11500 14500
" />
<path d="M10500 15500
L10500 14500
" />
<path d="M11500 14500
L11500 15500
" />
<path d="M17500 15500
L16500 15500
" />
<path d="M16500 14500
L17500 14500
" />
<path d="M16500 15500
L16500 14500
" />
<path d="M17500 14500
L17500 15500
" />
</g>
<g style="fill:#000000; fill-opacity:0.0; 
stroke:#000000; stroke-width:19.685; stroke-opacity:1; 
stroke-linecap:round; stroke-linejoin:round;">
</g>
<g style="fill:#000000; fill-opacity:1.0; 
stroke:#000000; stroke-width:19.685; stroke-opacity:1; 
stroke-linecap:round; stroke-linejoin:round;">
<polyline style="fill-rule:evenodd;"
points="12265,9234
12265,9765
11734,9765
11734,9234
12265,9234
" /> 
<circle cx="11000" cy="9500" r="265.157" /> 
<circle cx="12000" cy="8500" r="265.157" /> 
<polyline style="fill-rule:evenodd;"
points="9209,3709
9790,3709
9790,4290
9209,4290
9209,3709
" /> 
<circle cx="9500" cy="5000" r="290.157" /> 
<circle cx="9500" cy="6000" r="290.157" /> 
<polyline style="fill-rule:evenodd;"
points="18709,3709
19290,3709
19290,4290
18709,4290
18709,3709
" /> 
<circle cx="19000" cy="5000" r="290.157" /> 
<polyline style="fill-rule:evenodd;"
points="5709,9790
5709,9209
6290,9209
6290,9790
5709,9790
" /> 
<circle cx="7000" cy="9500" r="290.157" /> 
<polyline style="fill-rule:evenodd;"
points="12290,6290
11709,6290
11709,5709
12290,5709
12290,6290
" /> 
<circle cx="12000" cy="5000" r="290.157" /> 
<polyline style="fill-rule:evenodd;"
points="19290,8790
18709,8790
18709,8209
19290,8209
19290,8790
" /> 
<circle cx="19000" cy="7500" r="290.157" /> 
<circle cx="14500" cy="11750" r="265.157" /> 
<circle cx="16500" cy="11750" r="265.157" /> 
<circle cx="1500" cy="13500" r="265.157" /> 
<circle cx="1500" cy="15500" r="265.157" /> 
<circle cx="16500" cy="2000" r="265.157" /> 
<circle cx="14500" cy="2000" r="265.157" /> 
<circle cx="1500" cy="9500" r="265.157" /> 
<circle cx="1500" cy="10500" r="265.157" /> 
<polyline style="fill-rule:evenodd;"
points="3709,4790
3709,4209
4290,4209
4290,4790
3709,4790
" /> 
<polyline style="fill-rule:evenodd;"
points="3709,15290
3709,14709
4290,14709
4290,15290
3709,15290
" /> 
<polyline style="fill-rule:evenodd;"
points="16209,4790
16209,4209
16790,4209
16790,4790
16209,4790
" /> 
<polyline style="fill-rule:evenodd;"
points="10709,15290
10709,14709
11290,14709
11290,15290
10709,15290
" /> 
<polyline style="fill-rule:evenodd;"
points="16709,15290
16709,14709
17290,14709
17290,15290
16709,15290
" /> 
</g> 
</svg>
