<?xml version="1.0" standalone="no"?>
 <!DOCTYPE svg PUBLIC "-//W3C//DTD SVG 1.1//EN" 
 "http://www.w3.org/Graphics/SVG/1.1/DTD/svg11.dtd"> 
<svg xmlns="http://www.w3.org/2000/svg" version="1.1" 
    width="5.461cm" height="4.318cm" viewBox="0 0 21500 17000 ">
<title>SVG Picture created as OsciladorClapp-F_Cu.svg date 2016/05/13 16:03:30 </title>
  <desc>Picture generated by PCBNEW </desc>
<g style="fill:#000000; fill-opacity:1;stroke:#000000; stroke-opacity:1;
stroke-linecap:round; stroke-linejoin:round; "
 transform="translate(0 0) scale(1 1)">
</g>
<g style="fill:#000000; fill-opacity:0.0; 
stroke:#000000; stroke-width:19.685; stroke-opacity:1; 
stroke-linecap:round; stroke-linejoin:round;">
</g>
<g style="fill:#000000; fill-opacity:1.0; 
stroke:#000000; stroke-width:19.685; stroke-opacity:1; 
stroke-linecap:round; stroke-linejoin:round;">
<polyline style="fill-rule:evenodd;"
points="12265,9234
12265,9765
11734,9765
11734,9234
12265,9234
" /> 
<circle cx="11000" cy="9500" r="265.157" /> 
<circle cx="12000" cy="8500" r="265.157" /> 
<polyline style="fill-rule:evenodd;"
points="5734,10959
6265,10959
6265,11290
5734,11290
5734,10959
" /> 
<polyline style="fill-rule:evenodd;"
points="5734,11709
6265,11709
6265,12040
5734,12040
5734,11709
" /> 
<polyline style="fill-rule:evenodd;"
points="5734,13709
6265,13709
6265,14040
5734,14040
5734,13709
" /> 
<polyline style="fill-rule:evenodd;"
points="5734,14459
6265,14459
6265,14790
5734,14790
5734,14459
" /> 
<polyline style="fill-rule:evenodd;"
points="9234,7459
9765,7459
9765,7790
9234,7790
9234,7459
" /> 
<polyline style="fill-rule:evenodd;"
points="9234,8209
9765,8209
9765,8540
9234,8540
9234,8209
" /> 
<polyline style="fill-rule:evenodd;"
points="11734,11959
12265,11959
12265,12290
11734,12290
11734,11959
" /> 
<polyline style="fill-rule:evenodd;"
points="11734,12709
12265,12709
12265,13040
11734,13040
11734,12709
" /> 
<polyline style="fill-rule:evenodd;"
points="17515,9290
16984,9290
16984,8959
17515,8959
17515,9290
" /> 
<polyline style="fill-rule:evenodd;"
points="17515,8540
16984,8540
16984,8209
17515,8209
17515,8540
" /> 
<polyline style="fill-rule:evenodd;"
points="16265,9290
15734,9290
15734,8959
16265,8959
16265,9290
" /> 
<polyline style="fill-rule:evenodd;"
points="16265,8540
15734,8540
15734,8209
16265,8209
16265,8540
" /> 
<polyline style="fill-rule:evenodd;"
points="7234,13709
7765,13709
7765,14040
7234,14040
7234,13709
" /> 
<polyline style="fill-rule:evenodd;"
points="7234,14459
7765,14459
7765,14790
7234,14790
7234,14459
" /> 
<polyline style="fill-rule:evenodd;"
points="7234,10959
7765,10959
7765,11290
7234,11290
7234,10959
" /> 
<polyline style="fill-rule:evenodd;"
points="7234,11709
7765,11709
7765,12040
7234,12040
7234,11709
" /> 
<polyline style="fill-rule:evenodd;"
points="14234,8209
14765,8209
14765,8540
14234,8540
14234,8209
" /> 
<polyline style="fill-rule:evenodd;"
points="14234,8959
14765,8959
14765,9290
14234,9290
14234,8959
" /> 
<polyline style="fill-rule:evenodd;"
points="8765,8540
8234,8540
8234,8209
8765,8209
8765,8540
" /> 
<polyline style="fill-rule:evenodd;"
points="8765,7790
8234,7790
8234,7459
8765,7459
8765,7790
" /> 
<polyline style="fill-rule:evenodd;"
points="9209,3709
9790,3709
9790,4290
9209,4290
9209,3709
" /> 
<circle cx="9500" cy="5000" r="290.157" /> 
<circle cx="9500" cy="6000" r="290.157" /> 
<polyline style="fill-rule:evenodd;"
points="18709,3709
19290,3709
19290,4290
18709,4290
18709,3709
" /> 
<circle cx="19000" cy="5000" r="290.157" /> 
<polyline style="fill-rule:evenodd;"
points="5709,9790
5709,9209
6290,9209
6290,9790
5709,9790
" /> 
<circle cx="7000" cy="9500" r="290.157" /> 
<polyline style="fill-rule:evenodd;"
points="12290,6290
11709,6290
11709,5709
12290,5709
12290,6290
" /> 
<circle cx="12000" cy="5000" r="290.157" /> 
<polyline style="fill-rule:evenodd;"
points="19290,8790
18709,8790
18709,8209
19290,8209
19290,8790
" /> 
<circle cx="19000" cy="7500" r="290.157" /> 
<circle cx="14500" cy="11750" r="265.157" /> 
<circle cx="16500" cy="11750" r="265.157" /> 
<circle cx="1500" cy="13500" r="265.157" /> 
<circle cx="1500" cy="15500" r="265.157" /> 
<circle cx="16500" cy="2000" r="265.157" /> 
<circle cx="14500" cy="2000" r="265.157" /> 
<circle cx="1500" cy="9500" r="265.157" /> 
<circle cx="1500" cy="10500" r="265.157" /> 
<polyline style="fill-rule:evenodd;"
points="3709,4790
3709,4209
4290,4209
4290,4790
3709,4790
" /> 
<polyline style="fill-rule:evenodd;"
points="3709,15290
3709,14709
4290,14709
4290,15290
3709,15290
" /> 
<polyline style="fill-rule:evenodd;"
points="16209,4790
16209,4209
16790,4209
16790,4790
16209,4790
" /> 
<polyline style="fill-rule:evenodd;"
points="10709,15290
10709,14709
11290,14709
11290,15290
10709,15290
" /> 
<polyline style="fill-rule:evenodd;"
points="16709,15290
16709,14709
17290,14709
17290,15290
16709,15290
" /> 
</g>
<g style="fill:#000000; fill-opacity:1.0; 
stroke:#000000; stroke-width:393.701; stroke-opacity:1; 
stroke-linecap:round; stroke-linejoin:round;">
<path d="M6000 15000
L6500 15500
" />
<path d="M6000 14625
L6000 15000
" />
<path d="M6000 15000
L6000 15500
" />
<path d="M7500 14625
L7500 15500
" />
<path d="M12000 13500
L9500 13500
" />
<path d="M9000 15000
L8500 15500
" />
<path d="M8500 15500
L7500 15500
" />
<path d="M9000 14000
L9000 15000
" />
<path d="M9500 13500
L9000 14000
" />
<path d="M2000 15500
L1500 15500
" />
<path d="M7500 15500
L6500 15500
" />
<path d="M6500 15500
L6000 15500
" />
<path d="M6000 15500
L2000 15500
" />
<path d="M16000 8375
L16000 8000
" />
<path d="M16500 7500
L17500 7500
" />
<path d="M16000 8000
L16500 7500
" />
<path d="M12000 12875
L12000 13500
" />
<path d="M19000 7500
L20000 7500
" />
<path d="M19500 13500
L12000 13500
" />
<path d="M20500 12500
L19500 13500
" />
<path d="M20500 8000
L20500 12500
" />
<path d="M20000 7500
L20500 8000
" />
<path d="M17250 8375
L17250 7500
" />
<path d="M17250 7500
L17500 7500
" />
<path d="M19000 7500
L17500 7500
" />
<path d="M19000 5000
L19000 7500
" />
<path d="M1500 10500
L1500 13500
" />
<path d="M14500 2000
L13000 2000
" />
<path d="M12000 3000
L12000 5000
" />
<path d="M13000 2000
L12000 3000
" />
<path d="M9500 2500
L9500 5000
" />
<path d="M16500 2000
L15500 1000
" />
<path d="M9500 1500
L9500 2500
" />
<path d="M10000 1000
L9500 1500
" />
<path d="M10500 1000
L10000 1000
" />
<path d="M15500 1000
L10500 1000
" />
<path d="M19000 4000
L19000 3000
" />
<path d="M18000 2000
L16500 2000
" />
<path d="M19000 3000
L18000 2000
" />
<path d="M9500 6000
L9500 7625
" />
<path d="M8500 8375
L8500 9500
" />
<path d="M9500 8375
L9500 9500
" />
<path d="M11000 9500
L9500 9500
" />
<path d="M9500 9500
L8500 9500
" />
<path d="M8500 9500
L7000 9500
" />
<path d="M19000 8500
L19000 9500
" />
<path d="M19000 9500
L17000 9500
" />
<path d="M17250 9125
L17250 9250
" />
<path d="M17250 9250
L17000 9500
" />
<path d="M17000 9500
L16500 10000
" />
<path d="M16500 11750
L16500 10000
" />
<path d="M16000 9500
L16000 9125
" />
<path d="M16500 10000
L16000 9500
" />
<path d="M14500 9125
L14500 11750
" />
<path d="M6000 10000
L6500 10500
" />
<path d="M6000 9500
L1500 9500
" />
<path d="M6000 11125
L6000 10500
" />
<path d="M7500 11125
L7500 10500
" />
<path d="M7500 10500
L6500 10500
" />
<path d="M6000 10500
L6000 10000
" />
<path d="M6000 10000
L6000 9500
" />
<path d="M6500 10500
L6000 10500
" />
<path d="M7500 12500
L11000 12500
" />
<path d="M11875 12000
L12000 12125
" />
<path d="M11500 12000
L11875 12000
" />
<path d="M11000 12500
L11500 12000
" />
<path d="M12000 9500
L12000 12125
" />
<path d="M7000 13000
L7000 12500
" />
<path d="M6500 13000
L6500 12500
" />
<path d="M6000 13875
L6000 13000
" />
<path d="M7500 13000
L7500 13875
" />
<path d="M6000 13000
L6500 13000
" />
<path d="M6500 13000
L7000 13000
" />
<path d="M7000 13000
L7500 13000
" />
<path d="M6000 11875
L6000 12500
" />
<path d="M6000 12500
L6500 12500
" />
<path d="M7500 12000
L7500 11875
" />
<path d="M7500 12500
L7500 12000
" />
<path d="M7000 12500
L7500 12500
" />
<path d="M6500 12500
L7000 12500
" />
<path d="M12000 6000
L12000 8500
" />
<path d="M12000 8500
L13000 7500
" />
<path d="M14500 8000
L14500 8375
" />
<path d="M14000 7500
L14500 8000
" />
<path d="M13000 7500
L14000 7500
" />
</g>
<g style="fill:#000000; fill-opacity:1.0; 
stroke:#000000; stroke-width:19.685; stroke-opacity:1; 
stroke-linecap:round; stroke-linejoin:round;">
<polyline style="fill-rule:evenodd;"
points="21401,16901
19713,16901
19713,8718
19713,8118
19713,4218
19713,3618
19650,3466
19610,3425
19610,3000
19563,2766
19563,2766
19510,2687
19431,2568
19431,2568
18431,1568
18233,1436
18000,1389
17999,1389
16825,1389
16701,1338
15931,568
15733,436
15500,389
15499,389
10500,389
10000,389
10000,389
9766,436
9687,489
9568,568
9568,568
9068,1068
8936,1266
8889,1500
8889,1500
8889,2500
8889,3425
8849,3465
8786,3617
8786,3781
8786,4381
8849,4533
8889,4574
8889,4609
8786,4857
8786,5141
8894,5403
8991,5499
8895,5595
8786,5857
8786,6141
8889,6391
8889,7174
8834,7151
8715,7151
8576,7151
8501,7226
8501,7623
8509,7623
8509,7626
8501,7626
8501,7634
8498,7634
8498,7626
8498,7623
8498,7226
8423,7151
8284,7151
8165,7151
8055,7197
7971,7281
7926,7390
7926,7548
8001,7623
8498,7623
8498,7626
8001,7626
7926,7701
7926,7859
7942,7897
7874,7965
7811,8117
7811,8281
7811,8631
7874,8783
7889,8799
7889,8889
7390,8889
7142,8786
6858,8786
6596,8894
6587,8903
6534,8849
6382,8786
6218,8786
5618,8786
5466,8849
5425,8889
4713,8889
4713,4718
4713,4118
4650,3966
4534,3849
4382,3786
4218,3786
3618,3786
3466,3849
3349,3965
3286,4117
3286,4281
3286,4881
3349,5033
3465,5150
3617,5213
3781,5213
4381,5213
4533,5150
4650,5034
4713,4882
4713,4718
4713,8889
1825,8889
1637,8811
1363,8811
1110,8916
916,9109
811,9362
811,9636
916,9889
1026,10000
916,10109
811,10362
811,10636
889,10825
889,13174
811,13362
811,13636
916,13889
1109,14083
1362,14188
1636,14188
1889,14083
2083,13890
2188,13637
2188,13363
2110,13174
2110,10825
2188,10637
2188,10363
2083,10110
2083,10110
5389,10110
5389,10500
5389,10700
5374,10715
5311,10867
5311,11031
5311,11381
5360,11500
5311,11617
5311,11781
5311,12131
5374,12283
5389,12299
5389,12500
5436,12733
5447,12749
5436,12766
5389,13000
5389,13450
5374,13465
5311,13617
5311,13781
5311,14131
5374,14283
5442,14352
5426,14390
5426,14548
5501,14623
5998,14623
5998,14615
6001,14615
6001,14623
6498,14623
6573,14548
6573,14390
6557,14352
6625,14284
6688,14132
6688,13968
6688,13618
6685,13610
6814,13610
6811,13617
6811,13781
6811,14131
6874,14283
6942,14352
6926,14390
6926,14548
7001,14623
7498,14623
7498,14615
7501,14615
7501,14623
7998,14623
8073,14548
8073,14390
8057,14352
8125,14284
8188,14132
8188,13968
8188,13618
8125,13466
8110,13450
8110,13110
10999,13110
11000,13110
11000,13110
11233,13063
11431,12931
11486,12876
11501,12876
11426,12951
11426,13109
11471,13218
11555,13302
11665,13348
11784,13348
11923,13348
11998,13273
11998,12876
11990,12876
11990,12873
11998,12873
11998,12865
12001,12865
12001,12873
12498,12873
12573,12798
12573,12640
12557,12602
12625,12534
12688,12382
12688,12218
12688,11868
12625,11716
12610,11700
12610,10024
12625,10009
12688,9857
12688,9693
12688,9143
12625,8991
12554,8919
12583,8890
12661,8701
13252,8110
13747,8110
13811,8174
13811,8281
13811,8631
13860,8750
13811,8867
13811,9031
13811,9381
13874,9533
13889,9549
13889,11424
13811,11612
13811,11886
13916,12139
14109,12333
14362,12438
14636,12438
14889,12333
15083,12140
15188,11887
15188,11613
15110,11424
15110,9549
15125,9534
15188,9382
15188,9218
15188,8868
15139,8749
15188,8632
15188,8468
15188,8118
15125,7966
15097,7938
15063,7766
15063,7766
15010,7687
14931,7568
14931,7568
14431,7068
14233,6936
14000,6889
13999,6889
13000,6889
12766,6936
12687,6989
12610,7040
12610,6574
12650,6534
12713,6382
12713,6218
12713,5618
12650,5466
12596,5412
12604,5404
12713,5142
12713,4858
12610,4608
12610,3252
13252,2610
14174,2610
14362,2688
14636,2688
14889,2583
15083,2390
15188,2137
15188,1863
15083,1610
15083,1610
15247,1610
15838,2201
15916,2389
16109,2583
16362,2688
16636,2688
16825,2610
17747,2610
18389,3252
18389,3425
18349,3465
18286,3617
18286,3781
18286,4381
18349,4533
18465,4650
18496,4662
18406,4859
18397,5097
18480,5320
18505,5357
18620,5377
18997,5000
18992,4994
18994,4992
19000,4997
19005,4992
19007,4994
19002,5000
19379,5377
19494,5357
19593,5140
19602,4902
19519,4679
19507,4661
19533,4650
19650,4534
19713,4382
19713,4218
19713,8118
19650,7966
19534,7849
19503,7837
19593,7640
19602,7402
19519,7179
19494,7142
19379,7122
19377,7124
19377,7120
19377,5379
19000,5002
18622,5379
18642,5494
18859,5593
19097,5602
19320,5519
19357,5494
19377,5379
19377,7120
19357,7005
19140,6906
18902,6897
18679,6980
18642,7005
18622,7120
19000,7497
19377,7120
19377,7124
19002,7500
19007,7505
19005,7507
19000,7502
18994,7507
18992,7505
18997,7500
18620,7122
18505,7142
18406,7359
18397,7597
18480,7820
18492,7838
18466,7849
18349,7965
18286,8117
18286,8281
18286,8881
18289,8889
17938,8889
17938,8868
17875,8716
17807,8647
17823,8609
17823,8140
17778,8031
17694,7947
17584,7901
17465,7901
17326,7901
17251,7976
17251,8373
17748,8373
17823,8298
17823,8140
17823,8609
17823,8451
17748,8376
17251,8376
17251,8384
17248,8384
17248,8376
17248,8373
17248,7976
17213,7941
17213,4718
17213,4118
17150,3966
17034,3849
16882,3786
16718,3786
16118,3786
15966,3849
15849,3965
15786,4117
15786,4281
15786,4881
15849,5033
15965,5150
16117,5213
16281,5213
16881,5213
17033,5150
17150,5034
17213,4882
17213,4718
17213,7941
17173,7901
17034,7901
16915,7901
16805,7947
16721,8031
16676,8140
16676,8298
16751,8373
17248,8373
17248,8376
16751,8376
16676,8451
16676,8609
16692,8647
16624,8715
16557,8647
16573,8609
16573,8140
16528,8031
16444,7947
16334,7901
16215,7901
16076,7901
16001,7976
16001,8373
16498,8373
16573,8298
16573,8140
16573,8609
16573,8451
16498,8376
16001,8376
16001,8384
15998,8384
15998,8376
15998,8373
15998,7976
15923,7901
15784,7901
15665,7901
15555,7947
15471,8031
15426,8140
15426,8298
15501,8373
15998,8373
15998,8376
15501,8376
15426,8451
15426,8609
15442,8647
15374,8715
15311,8867
15311,9031
15311,9381
15374,9533
15402,9561
15436,9733
15568,9931
15889,10252
15889,11424
15811,11612
15811,11886
15916,12139
16109,12333
16362,12438
16636,12438
16889,12333
17083,12140
17188,11887
17188,11613
17110,11424
17110,10252
17252,10110
19000,10110
19233,10063
19431,9931
19563,9733
19610,9500
19610,9074
19650,9034
19713,8882
19713,8718
19713,16901
17713,16901
17713,15218
17713,14618
17650,14466
17534,14349
17382,14286
17218,14286
16618,14286
16466,14349
16349,14465
16286,14617
16286,14781
16286,15381
16349,15533
16465,15650
16617,15713
16781,15713
17381,15713
17533,15650
17650,15534
17713,15382
17713,15218
17713,16901
12573,16901
12573,13109
12573,12951
12498,12876
12001,12876
12001,13273
12076,13348
12215,13348
12334,13348
12444,13302
12528,13218
12573,13109
12573,16901
11998,16901
11713,16901
11713,15218
11713,14618
11650,14466
11534,14349
11382,14286
11218,14286
10618,14286
10466,14349
10349,14465
10286,14617
10286,14781
10286,15381
10349,15533
10465,15650
10617,15713
10781,15713
11381,15713
11533,15650
11650,15534
11713,15382
11713,15218
11713,16901
8073,16901
8073,14859
8073,14701
7998,14626
7501,14626
7501,15023
7576,15098
7715,15098
7834,15098
7944,15052
8028,14968
8073,14859
8073,16901
7498,16901
7498,15023
7498,14626
7001,14626
6926,14701
6926,14859
6971,14968
7055,15052
7165,15098
7284,15098
7423,15098
7498,15023
7498,16901
6573,16901
6573,14859
6573,14701
6498,14626
6001,14626
6001,15023
6076,15098
6215,15098
6334,15098
6444,15052
6528,14968
6573,14859
6573,16901
5998,16901
5998,15023
5998,14626
5501,14626
5426,14701
5426,14859
5471,14968
5555,15052
5665,15098
5784,15098
5923,15098
5998,15023
5998,16901
4713,16901
4713,15218
4713,14618
4650,14466
4534,14349
4382,14286
4218,14286
3618,14286
3466,14349
3349,14465
3286,14617
3286,14781
3286,15381
3349,15533
3465,15650
3617,15713
3781,15713
4381,15713
4533,15650
4650,15534
4713,15382
4713,15218
4713,16901
2077,16901
2077,15406
1997,15193
1973,15157
1861,15140
1859,15142
1859,15138
1842,15026
1634,14931
1406,14922
1193,15002
1157,15026
1140,15138
1500,15497
1859,15138
1859,15142
1502,15500
1861,15859
1973,15842
2068,15634
2077,15406
2077,16901
1859,16901
1859,15861
1500,15502
1497,15504
1497,15500
1138,15140
1026,15157
931,15365
922,15593
1002,15806
1026,15842
1138,15859
1497,15500
1497,15504
1140,15861
1157,15973
1365,16068
1593,16077
1806,15997
1842,15973
1859,15861
1859,16901
98,16901
98,98
21401,98
21401,16901
" /> 
</g>
<g style="fill:#000000; fill-opacity:0.0; 
stroke:#000000; stroke-width:196.85; stroke-opacity:1; 
stroke-linecap:round; stroke-linejoin:round;">
<polyline fill="none;"
points="21401,16901
19713,16901
19713,8718
19713,8118
19713,4218
19713,3618
19650,3466
19610,3425
19610,3000
19563,2766
19563,2766
19510,2687
19431,2568
19431,2568
18431,1568
18233,1436
18000,1389
17999,1389
16825,1389
16701,1338
15931,568
15733,436
15500,389
15499,389
10500,389
10000,389
10000,389
9766,436
9687,489
9568,568
9568,568
9068,1068
8936,1266
8889,1500
8889,1500
8889,2500
8889,3425
8849,3465
8786,3617
8786,3781
8786,4381
8849,4533
8889,4574
8889,4609
8786,4857
8786,5141
8894,5403
8991,5499
8895,5595
8786,5857
8786,6141
8889,6391
8889,7174
8834,7151
8715,7151
8576,7151
8501,7226
8501,7623
8509,7623
8509,7626
8501,7626
8501,7634
8498,7634
8498,7626
8498,7623
8498,7226
8423,7151
8284,7151
8165,7151
8055,7197
7971,7281
7926,7390
7926,7548
8001,7623
8498,7623
8498,7626
8001,7626
7926,7701
7926,7859
7942,7897
7874,7965
7811,8117
7811,8281
7811,8631
7874,8783
7889,8799
7889,8889
7390,8889
7142,8786
6858,8786
6596,8894
6587,8903
6534,8849
6382,8786
6218,8786
5618,8786
5466,8849
5425,8889
4713,8889
4713,4718
4713,4118
4650,3966
4534,3849
4382,3786
4218,3786
3618,3786
3466,3849
3349,3965
3286,4117
3286,4281
3286,4881
3349,5033
3465,5150
3617,5213
3781,5213
4381,5213
4533,5150
4650,5034
4713,4882
4713,4718
4713,8889
1825,8889
1637,8811
1363,8811
1110,8916
916,9109
811,9362
811,9636
916,9889
1026,10000
916,10109
811,10362
811,10636
889,10825
889,13174
811,13362
811,13636
916,13889
1109,14083
1362,14188
1636,14188
1889,14083
2083,13890
2188,13637
2188,13363
2110,13174
2110,10825
2188,10637
2188,10363
2083,10110
2083,10110
5389,10110
5389,10500
5389,10700
5374,10715
5311,10867
5311,11031
5311,11381
5360,11500
5311,11617
5311,11781
5311,12131
5374,12283
5389,12299
5389,12500
5436,12733
5447,12749
5436,12766
5389,13000
5389,13450
5374,13465
5311,13617
5311,13781
5311,14131
5374,14283
5442,14352
5426,14390
5426,14548
5501,14623
5998,14623
5998,14615
6001,14615
6001,14623
6498,14623
6573,14548
6573,14390
6557,14352
6625,14284
6688,14132
6688,13968
6688,13618
6685,13610
6814,13610
6811,13617
6811,13781
6811,14131
6874,14283
6942,14352
6926,14390
6926,14548
7001,14623
7498,14623
7498,14615
7501,14615
7501,14623
7998,14623
8073,14548
8073,14390
8057,14352
8125,14284
8188,14132
8188,13968
8188,13618
8125,13466
8110,13450
8110,13110
10999,13110
11000,13110
11000,13110
11233,13063
11431,12931
11486,12876
11501,12876
11426,12951
11426,13109
11471,13218
11555,13302
11665,13348
11784,13348
11923,13348
11998,13273
11998,12876
11990,12876
11990,12873
11998,12873
11998,12865
12001,12865
12001,12873
12498,12873
12573,12798
12573,12640
12557,12602
12625,12534
12688,12382
12688,12218
12688,11868
12625,11716
12610,11700
12610,10024
12625,10009
12688,9857
12688,9693
12688,9143
12625,8991
12554,8919
12583,8890
12661,8701
13252,8110
13747,8110
13811,8174
13811,8281
13811,8631
13860,8750
13811,8867
13811,9031
13811,9381
13874,9533
13889,9549
13889,11424
13811,11612
13811,11886
13916,12139
14109,12333
14362,12438
14636,12438
14889,12333
15083,12140
15188,11887
15188,11613
15110,11424
15110,9549
15125,9534
15188,9382
15188,9218
15188,8868
15139,8749
15188,8632
15188,8468
15188,8118
15125,7966
15097,7938
15063,7766
15063,7766
15010,7687
14931,7568
14931,7568
14431,7068
14233,6936
14000,6889
13999,6889
13000,6889
12766,6936
12687,6989
12610,7040
12610,6574
12650,6534
12713,6382
12713,6218
12713,5618
12650,5466
12596,5412
12604,5404
12713,5142
12713,4858
12610,4608
12610,3252
13252,2610
14174,2610
14362,2688
14636,2688
14889,2583
15083,2390
15188,2137
15188,1863
15083,1610
15083,1610
15247,1610
15838,2201
15916,2389
16109,2583
16362,2688
16636,2688
16825,2610
17747,2610
18389,3252
18389,3425
18349,3465
18286,3617
18286,3781
18286,4381
18349,4533
18465,4650
18496,4662
18406,4859
18397,5097
18480,5320
18505,5357
18620,5377
18997,5000
18992,4994
18994,4992
19000,4997
19005,4992
19007,4994
19002,5000
19379,5377
19494,5357
19593,5140
19602,4902
19519,4679
19507,4661
19533,4650
19650,4534
19713,4382
19713,4218
19713,8118
19650,7966
19534,7849
19503,7837
19593,7640
19602,7402
19519,7179
19494,7142
19379,7122
19377,7124
19377,7120
19377,5379
19000,5002
18622,5379
18642,5494
18859,5593
19097,5602
19320,5519
19357,5494
19377,5379
19377,7120
19357,7005
19140,6906
18902,6897
18679,6980
18642,7005
18622,7120
19000,7497
19377,7120
19377,7124
19002,7500
19007,7505
19005,7507
19000,7502
18994,7507
18992,7505
18997,7500
18620,7122
18505,7142
18406,7359
18397,7597
18480,7820
18492,7838
18466,7849
18349,7965
18286,8117
18286,8281
18286,8881
18289,8889
17938,8889
17938,8868
17875,8716
17807,8647
17823,8609
17823,8140
17778,8031
17694,7947
17584,7901
17465,7901
17326,7901
17251,7976
17251,8373
17748,8373
17823,8298
17823,8140
17823,8609
17823,8451
17748,8376
17251,8376
17251,8384
17248,8384
17248,8376
17248,8373
17248,7976
17213,7941
17213,4718
17213,4118
17150,3966
17034,3849
16882,3786
16718,3786
16118,3786
15966,3849
15849,3965
15786,4117
15786,4281
15786,4881
15849,5033
15965,5150
16117,5213
16281,5213
16881,5213
17033,5150
17150,5034
17213,4882
17213,4718
17213,7941
17173,7901
17034,7901
16915,7901
16805,7947
16721,8031
16676,8140
16676,8298
16751,8373
17248,8373
17248,8376
16751,8376
16676,8451
16676,8609
16692,8647
16624,8715
16557,8647
16573,8609
16573,8140
16528,8031
16444,7947
16334,7901
16215,7901
16076,7901
16001,7976
16001,8373
16498,8373
16573,8298
16573,8140
16573,8609
16573,8451
16498,8376
16001,8376
16001,8384
15998,8384
15998,8376
15998,8373
15998,7976
15923,7901
15784,7901
15665,7901
15555,7947
15471,8031
15426,8140
15426,8298
15501,8373
15998,8373
15998,8376
15501,8376
15426,8451
15426,8609
15442,8647
15374,8715
15311,8867
15311,9031
15311,9381
15374,9533
15402,9561
15436,9733
15568,9931
15889,10252
15889,11424
15811,11612
15811,11886
15916,12139
16109,12333
16362,12438
16636,12438
16889,12333
17083,12140
17188,11887
17188,11613
17110,11424
17110,10252
17252,10110
19000,10110
19233,10063
19431,9931
19563,9733
19610,9500
19610,9074
19650,9034
19713,8882
19713,8718
19713,16901
17713,16901
17713,15218
17713,14618
17650,14466
17534,14349
17382,14286
17218,14286
16618,14286
16466,14349
16349,14465
16286,14617
16286,14781
16286,15381
16349,15533
16465,15650
16617,15713
16781,15713
17381,15713
17533,15650
17650,15534
17713,15382
17713,15218
17713,16901
12573,16901
12573,13109
12573,12951
12498,12876
12001,12876
12001,13273
12076,13348
12215,13348
12334,13348
12444,13302
12528,13218
12573,13109
12573,16901
11998,16901
11713,16901
11713,15218
11713,14618
11650,14466
11534,14349
11382,14286
11218,14286
10618,14286
10466,14349
10349,14465
10286,14617
10286,14781
10286,15381
10349,15533
10465,15650
10617,15713
10781,15713
11381,15713
11533,15650
11650,15534
11713,15382
11713,15218
11713,16901
8073,16901
8073,14859
8073,14701
7998,14626
7501,14626
7501,15023
7576,15098
7715,15098
7834,15098
7944,15052
8028,14968
8073,14859
8073,16901
7498,16901
7498,15023
7498,14626
7001,14626
6926,14701
6926,14859
6971,14968
7055,15052
7165,15098
7284,15098
7423,15098
7498,15023
7498,16901
6573,16901
6573,14859
6573,14701
6498,14626
6001,14626
6001,15023
6076,15098
6215,15098
6334,15098
6444,15052
6528,14968
6573,14859
6573,16901
5998,16901
5998,15023
5998,14626
5501,14626
5426,14701
5426,14859
5471,14968
5555,15052
5665,15098
5784,15098
5923,15098
5998,15023
5998,16901
4713,16901
4713,15218
4713,14618
4650,14466
4534,14349
4382,14286
4218,14286
3618,14286
3466,14349
3349,14465
3286,14617
3286,14781
3286,15381
3349,15533
3465,15650
3617,15713
3781,15713
4381,15713
4533,15650
4650,15534
4713,15382
4713,15218
4713,16901
2077,16901
2077,15406
1997,15193
1973,15157
1861,15140
1859,15142
1859,15138
1842,15026
1634,14931
1406,14922
1193,15002
1157,15026
1140,15138
1500,15497
1859,15138
1859,15142
1502,15500
1861,15859
1973,15842
2068,15634
2077,15406
2077,16901
1859,16901
1859,15861
1500,15502
1497,15504
1497,15500
1138,15140
1026,15157
931,15365
922,15593
1002,15806
1026,15842
1138,15859
1497,15500
1497,15504
1140,15861
1157,15973
1365,16068
1593,16077
1806,15997
1842,15973
1859,15861
1859,16901
98,16901
98,98
21401,98
21401,16901
" /> 
</g>
<g style="fill:#FFFFFF; fill-opacity:0.0; 
stroke:#FFFFFF; stroke-width:19.685; stroke-opacity:1; 
stroke-linecap:round; stroke-linejoin:round;">
</g>
<g style="fill:#FFFFFF; fill-opacity:1.0; 
stroke:#FFFFFF; stroke-width:19.685; stroke-opacity:1; 
stroke-linecap:round; stroke-linejoin:round;">
<circle cx="12000" cy="9500" r="150.157" /> 
<circle cx="11000" cy="9500" r="150.157" /> 
<circle cx="12000" cy="8500" r="150.157" /> 
<circle cx="9500" cy="4000" r="190.157" /> 
<circle cx="9500" cy="5000" r="190.157" /> 
<circle cx="9500" cy="6000" r="190.157" /> 
<circle cx="19000" cy="4000" r="190.157" /> 
<circle cx="19000" cy="5000" r="190.157" /> 
<circle cx="6000" cy="9500" r="190.157" /> 
<circle cx="7000" cy="9500" r="190.157" /> 
<circle cx="12000" cy="6000" r="190.157" /> 
<circle cx="12000" cy="5000" r="190.157" /> 
<circle cx="19000" cy="8500" r="190.157" /> 
<circle cx="19000" cy="7500" r="190.157" /> 
<circle cx="14500" cy="11750" r="150.157" /> 
<circle cx="16500" cy="11750" r="150.157" /> 
<circle cx="1500" cy="13500" r="150.157" /> 
<circle cx="1500" cy="15500" r="150.157" /> 
<circle cx="16500" cy="2000" r="150.157" /> 
<circle cx="14500" cy="2000" r="150.157" /> 
<circle cx="1500" cy="9500" r="150.157" /> 
<circle cx="1500" cy="10500" r="150.157" /> 
<circle cx="4000" cy="4500" r="190.157" /> 
<circle cx="4000" cy="15000" r="190.157" /> 
<circle cx="16500" cy="4500" r="190.157" /> 
<circle cx="11000" cy="15000" r="190.157" /> 
<circle cx="17000" cy="15000" r="190.157" /> 
</g> 
</svg>
