<?xml version="1.0" standalone="no"?>
 <!DOCTYPE svg PUBLIC "-//W3C//DTD SVG 1.1//EN" 
 "http://www.w3.org/Graphics/SVG/1.1/DTD/svg11.dtd"> 
<svg xmlns="http://www.w3.org/2000/svg" version="1.1" 
    width="5.461cm" height="4.318cm" viewBox="0 0 21500 17000 ">
<title>SVG Picture created as OsciladorClapp-B_Cu.svg date 2016/05/13 16:03:30 </title>
  <desc>Picture generated by PCBNEW </desc>
<g style="fill:#000000; fill-opacity:1;stroke:#000000; stroke-opacity:1;
stroke-linecap:round; stroke-linejoin:round; "
 transform="translate(0 0) scale(1 1)">
</g>
<g style="fill:#000000; fill-opacity:0.0; 
stroke:#000000; stroke-width:19.685; stroke-opacity:1; 
stroke-linecap:round; stroke-linejoin:round;">
</g>
<g style="fill:#000000; fill-opacity:1.0; 
stroke:#000000; stroke-width:19.685; stroke-opacity:1; 
stroke-linecap:round; stroke-linejoin:round;">
<polyline style="fill-rule:evenodd;"
points="12265,9234
12265,9765
11734,9765
11734,9234
12265,9234
" /> 
<circle cx="11000" cy="9500" r="265.157" /> 
<circle cx="12000" cy="8500" r="265.157" /> 
<polyline style="fill-rule:evenodd;"
points="9209,3709
9790,3709
9790,4290
9209,4290
9209,3709
" /> 
<circle cx="9500" cy="5000" r="290.157" /> 
<circle cx="9500" cy="6000" r="290.157" /> 
<polyline style="fill-rule:evenodd;"
points="18709,3709
19290,3709
19290,4290
18709,4290
18709,3709
" /> 
<circle cx="19000" cy="5000" r="290.157" /> 
<polyline style="fill-rule:evenodd;"
points="5709,9790
5709,9209
6290,9209
6290,9790
5709,9790
" /> 
<circle cx="7000" cy="9500" r="290.157" /> 
<polyline style="fill-rule:evenodd;"
points="12290,6290
11709,6290
11709,5709
12290,5709
12290,6290
" /> 
<circle cx="12000" cy="5000" r="290.157" /> 
<polyline style="fill-rule:evenodd;"
points="19290,8790
18709,8790
18709,8209
19290,8209
19290,8790
" /> 
<circle cx="19000" cy="7500" r="290.157" /> 
<circle cx="14500" cy="11750" r="265.157" /> 
<circle cx="16500" cy="11750" r="265.157" /> 
<circle cx="1500" cy="13500" r="265.157" /> 
<circle cx="1500" cy="15500" r="265.157" /> 
<circle cx="16500" cy="2000" r="265.157" /> 
<circle cx="14500" cy="2000" r="265.157" /> 
<circle cx="1500" cy="9500" r="265.157" /> 
<circle cx="1500" cy="10500" r="265.157" /> 
<polyline style="fill-rule:evenodd;"
points="3709,4790
3709,4209
4290,4209
4290,4790
3709,4790
" /> 
<polyline style="fill-rule:evenodd;"
points="3709,15290
3709,14709
4290,14709
4290,15290
3709,15290
" /> 
<polyline style="fill-rule:evenodd;"
points="16209,4790
16209,4209
16790,4209
16790,4790
16209,4790
" /> 
<polyline style="fill-rule:evenodd;"
points="10709,15290
10709,14709
11290,14709
11290,15290
10709,15290
" /> 
<polyline style="fill-rule:evenodd;"
points="16709,15290
16709,14709
17290,14709
17290,15290
16709,15290
" /> 
<polyline style="fill-rule:evenodd;"
points="21401,16901
19713,16901
19713,8718
19713,8118
19713,4218
19713,3618
19650,3466
19534,3349
19382,3286
19218,3286
18618,3286
18466,3349
18349,3465
18286,3617
18286,3781
18286,4381
18349,4533
18465,4650
18496,4662
18406,4859
18397,5097
18480,5320
18505,5357
18620,5377
18997,5000
18992,4994
18994,4992
19000,4997
19005,4992
19007,4994
19002,5000
19379,5377
19494,5357
19593,5140
19602,4902
19519,4679
19507,4661
19533,4650
19650,4534
19713,4382
19713,4218
19713,8118
19650,7966
19534,7849
19503,7837
19593,7640
19602,7402
19519,7179
19494,7142
19379,7122
19377,7124
19377,7120
19377,5379
19000,5002
18622,5379
18642,5494
18859,5593
19097,5602
19320,5519
19357,5494
19377,5379
19377,7120
19357,7005
19140,6906
18902,6897
18679,6980
18642,7005
18622,7120
19000,7497
19377,7120
19377,7124
19002,7500
19007,7505
19005,7507
19000,7502
18994,7507
18992,7505
18997,7500
18620,7122
18505,7142
18406,7359
18397,7597
18480,7820
18492,7838
18466,7849
18349,7965
18286,8117
18286,8281
18286,8881
18349,9033
18465,9150
18617,9213
18781,9213
19381,9213
19533,9150
19650,9034
19713,8882
19713,8718
19713,16901
17713,16901
17713,15218
17713,14618
17650,14466
17534,14349
17382,14286
17218,14286
17213,14286
17213,4718
17213,4118
17188,4057
17188,1863
17083,1610
16890,1416
16637,1311
16363,1311
16110,1416
15916,1609
15811,1862
15811,2136
15916,2389
16109,2583
16362,2688
16636,2688
16889,2583
17083,2390
17188,2137
17188,1863
17188,4057
17150,3966
17034,3849
16882,3786
16718,3786
16118,3786
15966,3849
15849,3965
15786,4117
15786,4281
15786,4881
15849,5033
15965,5150
16117,5213
16281,5213
16881,5213
17033,5150
17150,5034
17213,4882
17213,4718
17213,14286
17188,14286
17188,11613
17083,11360
16890,11166
16637,11061
16363,11061
16110,11166
15916,11359
15811,11612
15811,11886
15916,12139
16109,12333
16362,12438
16636,12438
16889,12333
17083,12140
17188,11887
17188,11613
17188,14286
16618,14286
16466,14349
16349,14465
16286,14617
16286,14781
16286,15381
16349,15533
16465,15650
16617,15713
16781,15713
17381,15713
17533,15650
17650,15534
17713,15382
17713,15218
17713,16901
15188,16901
15188,11613
15188,1863
15083,1610
14890,1416
14637,1311
14363,1311
14110,1416
13916,1609
13811,1862
13811,2136
13916,2389
14109,2583
14362,2688
14636,2688
14889,2583
15083,2390
15188,2137
15188,1863
15188,11613
15083,11360
14890,11166
14637,11061
14363,11061
14110,11166
13916,11359
13811,11612
13811,11886
13916,12139
14109,12333
14362,12438
14636,12438
14889,12333
15083,12140
15188,11887
15188,11613
15188,16901
12713,16901
12713,4858
12605,4596
12404,4395
12142,4286
11858,4286
11596,4394
11395,4595
11286,4857
11286,5141
11394,5403
11403,5412
11349,5465
11286,5617
11286,5781
11286,6381
11349,6533
11465,6650
11617,6713
11781,6713
12381,6713
12533,6650
12650,6534
12713,6382
12713,6218
12713,5618
12650,5466
12596,5412
12604,5404
12713,5142
12713,4858
12713,16901
12688,16901
12688,8363
12583,8110
12390,7916
12137,7811
11863,7811
11610,7916
11416,8109
11311,8362
11311,8636
11416,8889
11446,8919
11419,8945
11390,8916
11137,8811
10863,8811
10610,8916
10416,9109
10311,9362
10311,9636
10416,9889
10609,10083
10862,10188
11136,10188
11389,10083
11419,10053
11490,10125
11642,10188
11806,10188
12356,10188
12508,10125
12625,10009
12688,9857
12688,9693
12688,9143
12625,8991
12554,8919
12583,8890
12688,8637
12688,8363
12688,16901
11713,16901
11713,15218
11713,14618
11650,14466
11534,14349
11382,14286
11218,14286
10618,14286
10466,14349
10349,14465
10286,14617
10286,14781
10286,15381
10349,15533
10465,15650
10617,15713
10781,15713
11381,15713
11533,15650
11650,15534
11713,15382
11713,15218
11713,16901
10213,16901
10213,5858
10105,5596
10008,5500
10104,5404
10213,5142
10213,4858
10105,4596
10096,4587
10150,4534
10213,4382
10213,4218
10213,3618
10150,3466
10034,3349
9882,3286
9718,3286
9118,3286
8966,3349
8849,3465
8786,3617
8786,3781
8786,4381
8849,4533
8903,4587
8895,4595
8786,4857
8786,5141
8894,5403
8991,5499
8895,5595
8786,5857
8786,6141
8894,6403
9095,6604
9357,6713
9641,6713
9903,6605
10104,6404
10213,6142
10213,5858
10213,16901
7713,16901
7713,9358
7605,9096
7404,8895
7142,8786
6858,8786
6596,8894
6587,8903
6534,8849
6382,8786
6218,8786
5618,8786
5466,8849
5349,8965
5286,9117
5286,9281
5286,9881
5349,10033
5465,10150
5617,10213
5781,10213
6381,10213
6533,10150
6587,10096
6595,10104
6857,10213
7141,10213
7403,10105
7604,9904
7713,9642
7713,9358
7713,16901
4713,16901
4713,15218
4713,14618
4713,4718
4713,4118
4650,3966
4534,3849
4382,3786
4218,3786
3618,3786
3466,3849
3349,3965
3286,4117
3286,4281
3286,4881
3349,5033
3465,5150
3617,5213
3781,5213
4381,5213
4533,5150
4650,5034
4713,4882
4713,4718
4713,14618
4650,14466
4534,14349
4382,14286
4218,14286
3618,14286
3466,14349
3349,14465
3286,14617
3286,14781
3286,15381
3349,15533
3465,15650
3617,15713
3781,15713
4381,15713
4533,15650
4650,15534
4713,15382
4713,15218
4713,16901
2188,16901
2188,13363
2188,10363
2083,10110
1973,9999
2083,9890
2188,9637
2188,9363
2083,9110
1890,8916
1637,8811
1363,8811
1110,8916
916,9109
811,9362
811,9636
916,9889
1026,10000
916,10109
811,10362
811,10636
916,10889
1109,11083
1362,11188
1636,11188
1889,11083
2083,10890
2188,10637
2188,10363
2188,13363
2083,13110
1890,12916
1637,12811
1363,12811
1110,12916
916,13109
811,13362
811,13636
916,13889
1109,14083
1362,14188
1636,14188
1889,14083
2083,13890
2188,13637
2188,13363
2188,16901
2077,16901
2077,15406
1997,15193
1973,15157
1861,15140
1859,15142
1859,15138
1842,15026
1634,14931
1406,14922
1193,15002
1157,15026
1140,15138
1500,15497
1859,15138
1859,15142
1502,15500
1861,15859
1973,15842
2068,15634
2077,15406
2077,16901
1859,16901
1859,15861
1500,15502
1497,15504
1497,15500
1138,15140
1026,15157
931,15365
922,15593
1002,15806
1026,15842
1138,15859
1497,15500
1497,15504
1140,15861
1157,15973
1365,16068
1593,16077
1806,15997
1842,15973
1859,15861
1859,16901
98,16901
98,98
21401,98
21401,16901
" /> 
</g>
<g style="fill:#000000; fill-opacity:0.0; 
stroke:#000000; stroke-width:196.85; stroke-opacity:1; 
stroke-linecap:round; stroke-linejoin:round;">
<polyline fill="none;"
points="21401,16901
19713,16901
19713,8718
19713,8118
19713,4218
19713,3618
19650,3466
19534,3349
19382,3286
19218,3286
18618,3286
18466,3349
18349,3465
18286,3617
18286,3781
18286,4381
18349,4533
18465,4650
18496,4662
18406,4859
18397,5097
18480,5320
18505,5357
18620,5377
18997,5000
18992,4994
18994,4992
19000,4997
19005,4992
19007,4994
19002,5000
19379,5377
19494,5357
19593,5140
19602,4902
19519,4679
19507,4661
19533,4650
19650,4534
19713,4382
19713,4218
19713,8118
19650,7966
19534,7849
19503,7837
19593,7640
19602,7402
19519,7179
19494,7142
19379,7122
19377,7124
19377,7120
19377,5379
19000,5002
18622,5379
18642,5494
18859,5593
19097,5602
19320,5519
19357,5494
19377,5379
19377,7120
19357,7005
19140,6906
18902,6897
18679,6980
18642,7005
18622,7120
19000,7497
19377,7120
19377,7124
19002,7500
19007,7505
19005,7507
19000,7502
18994,7507
18992,7505
18997,7500
18620,7122
18505,7142
18406,7359
18397,7597
18480,7820
18492,7838
18466,7849
18349,7965
18286,8117
18286,8281
18286,8881
18349,9033
18465,9150
18617,9213
18781,9213
19381,9213
19533,9150
19650,9034
19713,8882
19713,8718
19713,16901
17713,16901
17713,15218
17713,14618
17650,14466
17534,14349
17382,14286
17218,14286
17213,14286
17213,4718
17213,4118
17188,4057
17188,1863
17083,1610
16890,1416
16637,1311
16363,1311
16110,1416
15916,1609
15811,1862
15811,2136
15916,2389
16109,2583
16362,2688
16636,2688
16889,2583
17083,2390
17188,2137
17188,1863
17188,4057
17150,3966
17034,3849
16882,3786
16718,3786
16118,3786
15966,3849
15849,3965
15786,4117
15786,4281
15786,4881
15849,5033
15965,5150
16117,5213
16281,5213
16881,5213
17033,5150
17150,5034
17213,4882
17213,4718
17213,14286
17188,14286
17188,11613
17083,11360
16890,11166
16637,11061
16363,11061
16110,11166
15916,11359
15811,11612
15811,11886
15916,12139
16109,12333
16362,12438
16636,12438
16889,12333
17083,12140
17188,11887
17188,11613
17188,14286
16618,14286
16466,14349
16349,14465
16286,14617
16286,14781
16286,15381
16349,15533
16465,15650
16617,15713
16781,15713
17381,15713
17533,15650
17650,15534
17713,15382
17713,15218
17713,16901
15188,16901
15188,11613
15188,1863
15083,1610
14890,1416
14637,1311
14363,1311
14110,1416
13916,1609
13811,1862
13811,2136
13916,2389
14109,2583
14362,2688
14636,2688
14889,2583
15083,2390
15188,2137
15188,1863
15188,11613
15083,11360
14890,11166
14637,11061
14363,11061
14110,11166
13916,11359
13811,11612
13811,11886
13916,12139
14109,12333
14362,12438
14636,12438
14889,12333
15083,12140
15188,11887
15188,11613
15188,16901
12713,16901
12713,4858
12605,4596
12404,4395
12142,4286
11858,4286
11596,4394
11395,4595
11286,4857
11286,5141
11394,5403
11403,5412
11349,5465
11286,5617
11286,5781
11286,6381
11349,6533
11465,6650
11617,6713
11781,6713
12381,6713
12533,6650
12650,6534
12713,6382
12713,6218
12713,5618
12650,5466
12596,5412
12604,5404
12713,5142
12713,4858
12713,16901
12688,16901
12688,8363
12583,8110
12390,7916
12137,7811
11863,7811
11610,7916
11416,8109
11311,8362
11311,8636
11416,8889
11446,8919
11419,8945
11390,8916
11137,8811
10863,8811
10610,8916
10416,9109
10311,9362
10311,9636
10416,9889
10609,10083
10862,10188
11136,10188
11389,10083
11419,10053
11490,10125
11642,10188
11806,10188
12356,10188
12508,10125
12625,10009
12688,9857
12688,9693
12688,9143
12625,8991
12554,8919
12583,8890
12688,8637
12688,8363
12688,16901
11713,16901
11713,15218
11713,14618
11650,14466
11534,14349
11382,14286
11218,14286
10618,14286
10466,14349
10349,14465
10286,14617
10286,14781
10286,15381
10349,15533
10465,15650
10617,15713
10781,15713
11381,15713
11533,15650
11650,15534
11713,15382
11713,15218
11713,16901
10213,16901
10213,5858
10105,5596
10008,5500
10104,5404
10213,5142
10213,4858
10105,4596
10096,4587
10150,4534
10213,4382
10213,4218
10213,3618
10150,3466
10034,3349
9882,3286
9718,3286
9118,3286
8966,3349
8849,3465
8786,3617
8786,3781
8786,4381
8849,4533
8903,4587
8895,4595
8786,4857
8786,5141
8894,5403
8991,5499
8895,5595
8786,5857
8786,6141
8894,6403
9095,6604
9357,6713
9641,6713
9903,6605
10104,6404
10213,6142
10213,5858
10213,16901
7713,16901
7713,9358
7605,9096
7404,8895
7142,8786
6858,8786
6596,8894
6587,8903
6534,8849
6382,8786
6218,8786
5618,8786
5466,8849
5349,8965
5286,9117
5286,9281
5286,9881
5349,10033
5465,10150
5617,10213
5781,10213
6381,10213
6533,10150
6587,10096
6595,10104
6857,10213
7141,10213
7403,10105
7604,9904
7713,9642
7713,9358
7713,16901
4713,16901
4713,15218
4713,14618
4713,4718
4713,4118
4650,3966
4534,3849
4382,3786
4218,3786
3618,3786
3466,3849
3349,3965
3286,4117
3286,4281
3286,4881
3349,5033
3465,5150
3617,5213
3781,5213
4381,5213
4533,5150
4650,5034
4713,4882
4713,4718
4713,14618
4650,14466
4534,14349
4382,14286
4218,14286
3618,14286
3466,14349
3349,14465
3286,14617
3286,14781
3286,15381
3349,15533
3465,15650
3617,15713
3781,15713
4381,15713
4533,15650
4650,15534
4713,15382
4713,15218
4713,16901
2188,16901
2188,13363
2188,10363
2083,10110
1973,9999
2083,9890
2188,9637
2188,9363
2083,9110
1890,8916
1637,8811
1363,8811
1110,8916
916,9109
811,9362
811,9636
916,9889
1026,10000
916,10109
811,10362
811,10636
916,10889
1109,11083
1362,11188
1636,11188
1889,11083
2083,10890
2188,10637
2188,10363
2188,13363
2083,13110
1890,12916
1637,12811
1363,12811
1110,12916
916,13109
811,13362
811,13636
916,13889
1109,14083
1362,14188
1636,14188
1889,14083
2083,13890
2188,13637
2188,13363
2188,16901
2077,16901
2077,15406
1997,15193
1973,15157
1861,15140
1859,15142
1859,15138
1842,15026
1634,14931
1406,14922
1193,15002
1157,15026
1140,15138
1500,15497
1859,15138
1859,15142
1502,15500
1861,15859
1973,15842
2068,15634
2077,15406
2077,16901
1859,16901
1859,15861
1500,15502
1497,15504
1497,15500
1138,15140
1026,15157
931,15365
922,15593
1002,15806
1026,15842
1138,15859
1497,15500
1497,15504
1140,15861
1157,15973
1365,16068
1593,16077
1806,15997
1842,15973
1859,15861
1859,16901
98,16901
98,98
21401,98
21401,16901
" /> 
</g>
<g style="fill:#FFFFFF; fill-opacity:0.0; 
stroke:#FFFFFF; stroke-width:19.685; stroke-opacity:1; 
stroke-linecap:round; stroke-linejoin:round;">
</g>
<g style="fill:#FFFFFF; fill-opacity:1.0; 
stroke:#FFFFFF; stroke-width:19.685; stroke-opacity:1; 
stroke-linecap:round; stroke-linejoin:round;">
<circle cx="12000" cy="9500" r="150.157" /> 
<circle cx="11000" cy="9500" r="150.157" /> 
<circle cx="12000" cy="8500" r="150.157" /> 
<circle cx="9500" cy="4000" r="190.157" /> 
<circle cx="9500" cy="5000" r="190.157" /> 
<circle cx="9500" cy="6000" r="190.157" /> 
<circle cx="19000" cy="4000" r="190.157" /> 
<circle cx="19000" cy="5000" r="190.157" /> 
<circle cx="6000" cy="9500" r="190.157" /> 
<circle cx="7000" cy="9500" r="190.157" /> 
<circle cx="12000" cy="6000" r="190.157" /> 
<circle cx="12000" cy="5000" r="190.157" /> 
<circle cx="19000" cy="8500" r="190.157" /> 
<circle cx="19000" cy="7500" r="190.157" /> 
<circle cx="14500" cy="11750" r="150.157" /> 
<circle cx="16500" cy="11750" r="150.157" /> 
<circle cx="1500" cy="13500" r="150.157" /> 
<circle cx="1500" cy="15500" r="150.157" /> 
<circle cx="16500" cy="2000" r="150.157" /> 
<circle cx="14500" cy="2000" r="150.157" /> 
<circle cx="1500" cy="9500" r="150.157" /> 
<circle cx="1500" cy="10500" r="150.157" /> 
<circle cx="4000" cy="4500" r="190.157" /> 
<circle cx="4000" cy="15000" r="190.157" /> 
<circle cx="16500" cy="4500" r="190.157" /> 
<circle cx="11000" cy="15000" r="190.157" /> 
<circle cx="17000" cy="15000" r="190.157" /> 
</g> 
</svg>
